<?xml version="1.0" standalone="no"?><!DOCTYPE svg PUBLIC "-//W3C//DTD SVG 1.1//EN" "http://www.w3.org/Graphics/SVG/1.1/DTD/svg11.dtd"><svg t="1594554798057" class="icon" viewBox="0 0 1242 1024" version="1.1" xmlns="http://www.w3.org/2000/svg" p-id="696" xmlns:xlink="http://www.w3.org/1999/xlink" width="242.578125" height="200"><defs><style type="text/css"></style></defs><path d="M531.252288 0C248.42147 0 19.252288 229.169181 19.252288 512S248.42147 1024 531.252288 1024s512-229.169181 512-512S814.083107 0 531.252288 0zM389.527887 678.340777h234.31905c40.786964 0 73.952122-33.062161 73.952123-73.952123v-12.256689c0-13.595655-11.02072-24.719372-24.719373-24.719372H500.45607c-13.698652 0-24.719372-11.02072-24.719372-24.719372v-61.592436c0-13.698652 11.02072-24.719372 24.719372-24.719373H784.007871c13.595655 0 24.719372 11.02072 24.719372 24.719373v141.724401c0 91.976665-74.570107 166.443774-166.443774 166.443774H278.496706c-13.595655 0-24.719372-11.02072-24.719372-24.719372v-345.04124c0-102.070408 82.809897-184.880306 184.880305-184.880305H784.007871c13.698652 0 24.719372 11.02072 24.719372 24.719372l-0.102997 61.592436c0 13.698652-11.02072 24.719372-24.719373 24.719372H438.760637c-40.786964 0-73.952122 33.062161-73.952123 73.952123v234.216053c0 13.492657 11.02072 24.513378 24.719373 24.513378z" p-id="697" fill="#2c2c2c"></path></svg>